# xmcd
#
# Track frame offsets: 
#        150
#        15677
#        30969
#        49010
#        66632
#        81848
#        98658
#        116109
#        130943
#        149839
#
# Disc length: 2190 seconds
#
# Revision: 0
# Processed by: cddbd v1.5.2PL0 Copyright (c) Steve Scherf et al.
# Submitted via: ExactAudioCopy v0.99pb4
#
DISCID=8c088c0a
DTITLE=คำมอด พรขุนเดช - หมอลำขาโจ๋
DYEAR=2008
DGENRE=Country
TTITLE0=ป๋าเมียมาแล้ว
TTITLE1=หมอลำขาโจ๋
TTITLE2=นักเลงใหญ่
TTITLE3=มักสาวแขก
TTITLE4=ได้ส่ำได๋กะเอ๋า
TTITLE5=น้ำตาเสือเก่า
TTITLE6=น้ำตากะปอม
TTITLE7=รองเท้าในกระท่อม
TTITLE8=บทเรียนสอนใจ
TTITLE9=มีเมียแก่
EXTD=
EXTT0=
EXTT1=
EXTT2=
EXTT3=
EXTT4=
EXTT5=
EXTT6=
EXTT7=
EXTT8=
EXTT9=
PLAYORDER=
